<mxfile host="app.diagrams.net" agent="Mozilla/5.0 (Windows NT 10.0; Win64; x64) AppleWebKit/537.36 (KHTML, like Gecko) Chrome/129.0.0.0 Safari/537.36" version="24.7.17">
  <diagram name="第 1 页" id="JeWldXXxksjpVP-zL5Ht">
    <mxGraphModel dx="1434" dy="738" grid="1" gridSize="10" guides="1" tooltips="1" connect="1" arrows="1" fold="1" page="1" pageScale="1" pageWidth="900" pageHeight="1600" math="0" shadow="0">
      <root>
        <mxCell id="0" />
        <mxCell id="1" parent="0" />
        <mxCell id="8GKyTfsWxNbbxCT-tOfK-8" value="" style="rounded=0;whiteSpace=wrap;html=1;dashed=1;dashPattern=12 12;" parent="1" vertex="1">
          <mxGeometry x="170" y="290" width="560" height="60" as="geometry" />
        </mxCell>
        <mxCell id="womFPRaeuXH6ECmNfBCx-7" value="工程质量问题盘点" style="rounded=0;whiteSpace=wrap;html=1;" parent="1" vertex="1">
          <mxGeometry x="230" y="302.5" width="120" height="35" as="geometry" />
        </mxCell>
        <mxCell id="8GKyTfsWxNbbxCT-tOfK-1" value="工程质量问题核验" style="rounded=0;whiteSpace=wrap;html=1;" parent="1" vertex="1">
          <mxGeometry x="560" y="302.5" width="120" height="35" as="geometry" />
        </mxCell>
        <mxCell id="8GKyTfsWxNbbxCT-tOfK-12" value="" style="shape=flexArrow;endArrow=classic;html=1;rounded=0;" parent="1" edge="1">
          <mxGeometry width="50" height="50" relative="1" as="geometry">
            <mxPoint x="457" y="120" as="sourcePoint" />
            <mxPoint x="457" y="170" as="targetPoint" />
            <Array as="points">
              <mxPoint x="457" y="145" />
            </Array>
          </mxGeometry>
        </mxCell>
        <mxCell id="8GKyTfsWxNbbxCT-tOfK-13" value="" style="shape=flexArrow;endArrow=classic;html=1;rounded=0;exitX=0.514;exitY=1;exitDx=0;exitDy=0;exitPerimeter=0;" parent="1" source="8GKyTfsWxNbbxCT-tOfK-7" edge="1">
          <mxGeometry width="50" height="50" relative="1" as="geometry">
            <mxPoint x="459" y="315" as="sourcePoint" />
            <mxPoint x="458" y="290" as="targetPoint" />
          </mxGeometry>
        </mxCell>
        <mxCell id="8GKyTfsWxNbbxCT-tOfK-14" value="" style="shape=flexArrow;endArrow=classic;html=1;rounded=0;" parent="1" edge="1">
          <mxGeometry width="50" height="50" relative="1" as="geometry">
            <mxPoint x="459" y="350" as="sourcePoint" />
            <mxPoint x="459" y="393" as="targetPoint" />
          </mxGeometry>
        </mxCell>
        <mxCell id="8GKyTfsWxNbbxCT-tOfK-15" value="" style="group" parent="1" vertex="1" connectable="0">
          <mxGeometry x="170" y="400" width="560" height="60" as="geometry" />
        </mxCell>
        <mxCell id="8GKyTfsWxNbbxCT-tOfK-9" value="" style="rounded=0;whiteSpace=wrap;html=1;dashed=1;dashPattern=12 12;" parent="8GKyTfsWxNbbxCT-tOfK-15" vertex="1">
          <mxGeometry width="560" height="60" as="geometry" />
        </mxCell>
        <mxCell id="8GKyTfsWxNbbxCT-tOfK-3" value="地块工程问题矢量数据" style="rounded=0;whiteSpace=wrap;html=1;" parent="8GKyTfsWxNbbxCT-tOfK-15" vertex="1">
          <mxGeometry x="221" y="11.052631578947368" width="140" height="35" as="geometry" />
        </mxCell>
        <mxCell id="8GKyTfsWxNbbxCT-tOfK-16" value="" style="group" parent="1" vertex="1" connectable="0">
          <mxGeometry x="170" y="510" width="560" height="60" as="geometry" />
        </mxCell>
        <mxCell id="8GKyTfsWxNbbxCT-tOfK-10" value="" style="rounded=0;whiteSpace=wrap;html=1;dashed=1;dashPattern=12 12;" parent="8GKyTfsWxNbbxCT-tOfK-16" vertex="1">
          <mxGeometry width="560" height="60" as="geometry" />
        </mxCell>
        <mxCell id="8GKyTfsWxNbbxCT-tOfK-4" value="发布再核查监管任务" style="rounded=0;whiteSpace=wrap;html=1;" parent="8GKyTfsWxNbbxCT-tOfK-16" vertex="1">
          <mxGeometry x="60" y="11.052631578947368" width="130" height="35" as="geometry" />
        </mxCell>
        <mxCell id="8GKyTfsWxNbbxCT-tOfK-5" value="地块工程问题图层" style="rounded=0;whiteSpace=wrap;html=1;" parent="8GKyTfsWxNbbxCT-tOfK-16" vertex="1">
          <mxGeometry x="390" y="11.052631578947368" width="120" height="35" as="geometry" />
        </mxCell>
        <mxCell id="8GKyTfsWxNbbxCT-tOfK-17" value="" style="group" parent="1" vertex="1" connectable="0">
          <mxGeometry x="170" y="60" width="560" height="60" as="geometry" />
        </mxCell>
        <mxCell id="8GKyTfsWxNbbxCT-tOfK-6" value="" style="rounded=0;whiteSpace=wrap;html=1;dashed=1;dashPattern=12 12;" parent="8GKyTfsWxNbbxCT-tOfK-17" vertex="1">
          <mxGeometry width="560" height="60" as="geometry" />
        </mxCell>
        <mxCell id="womFPRaeuXH6ECmNfBCx-1" value="农田地块工程质量数据" style="rounded=0;whiteSpace=wrap;html=1;" parent="8GKyTfsWxNbbxCT-tOfK-17" vertex="1">
          <mxGeometry x="390" y="11.052631578947368" width="130" height="37.89473684210526" as="geometry" />
        </mxCell>
        <mxCell id="womFPRaeuXH6ECmNfBCx-2" value="当前农田地块属性数据" style="rounded=0;whiteSpace=wrap;html=1;" parent="8GKyTfsWxNbbxCT-tOfK-17" vertex="1">
          <mxGeometry x="220" y="11.052631578947368" width="140" height="37.89473684210526" as="geometry" />
        </mxCell>
        <mxCell id="womFPRaeuXH6ECmNfBCx-3" value="施工前农田地块矢量数据" style="rounded=0;whiteSpace=wrap;html=1;" parent="8GKyTfsWxNbbxCT-tOfK-17" vertex="1">
          <mxGeometry x="50" y="11.052631578947368" width="140" height="37.89473684210526" as="geometry" />
        </mxCell>
        <mxCell id="8GKyTfsWxNbbxCT-tOfK-18" value="" style="group" parent="1" vertex="1" connectable="0">
          <mxGeometry x="170" y="180" width="560" height="60" as="geometry" />
        </mxCell>
        <mxCell id="8GKyTfsWxNbbxCT-tOfK-7" value="" style="rounded=0;whiteSpace=wrap;html=1;dashed=1;dashPattern=12 12;" parent="8GKyTfsWxNbbxCT-tOfK-18" vertex="1">
          <mxGeometry width="560" height="60" as="geometry" />
        </mxCell>
        <mxCell id="womFPRaeuXH6ECmNfBCx-4" value="目视解译" style="rounded=0;whiteSpace=wrap;html=1;" parent="8GKyTfsWxNbbxCT-tOfK-18" vertex="1">
          <mxGeometry x="60" y="12.502631578947367" width="120" height="35" as="geometry" />
        </mxCell>
        <mxCell id="womFPRaeuXH6ECmNfBCx-5" value="空间分析" style="rounded=0;whiteSpace=wrap;html=1;" parent="8GKyTfsWxNbbxCT-tOfK-18" vertex="1">
          <mxGeometry x="390" y="12.502631578947367" width="120" height="35" as="geometry" />
        </mxCell>
        <mxCell id="8GKyTfsWxNbbxCT-tOfK-19" value="" style="shape=flexArrow;endArrow=classic;html=1;rounded=0;exitX=0.514;exitY=0.989;exitDx=0;exitDy=0;exitPerimeter=0;" parent="1" edge="1">
          <mxGeometry width="50" height="50" relative="1" as="geometry">
            <mxPoint x="457.84000000000015" y="460.00499999999994" as="sourcePoint" />
            <mxPoint x="458" y="510" as="targetPoint" />
          </mxGeometry>
        </mxCell>
      </root>
    </mxGraphModel>
  </diagram>
</mxfile>
